<svg width="1024" height="1024" viewBox="0 0 1024 1024" fill="none" xmlns="http://www.w3.org/2000/svg">
<rect width="1024" height="1024" fill="black"/>
<circle cx="519" cy="512" r="496" fill="black"/>
<path d="M496.602 692.94C401.418 692.94 292.428 692.94 196.031 692.94C196.031 681.323 196.031 618.631 196.031 618.631L394.878 397.637H203.055V327.442H491.275L491.517 400.057L293.396 623.713C293.396 623.713 372.111 623.713 403.113 623.713C433.872 623.713 464.874 623.713 496.36 623.713C496.602 646.708 496.602 669.703 496.602 692.94Z" fill="#F6F6F6"/>
<path fill-rule="evenodd" clip-rule="evenodd" d="M838.836 575.788C838.836 575.788 840.046 570.706 840.53 566.348C844.165 538.755 841.015 512.129 831.085 486.471C806.865 429.589 755.276 401.027 701.265 401.027C664.692 401.027 628.122 412.162 601.478 435.399C570.719 462.023 550.86 496.637 550.86 547.954C550.86 602.657 578.469 646.467 612.863 669.946C637.567 686.89 675.593 697.784 715.071 697.784C756.244 697.784 800.81 685.68 823.335 669.704C820.9 664.107 816.199 652.572 811.449 640.918C806.752 629.393 802.007 617.751 799.357 611.613C787.975 618.148 773.443 623.715 756.973 627.347C740.744 630.976 722.822 632.913 698.36 629.766C651.131 623.715 631.027 594.427 628.364 575.788H838.836ZM628.837 520.839C633.682 491.065 657.418 468.07 700.286 468.07C743.157 468.07 766.65 496.391 765.197 520.839H640.222H628.837Z" fill="#F6F6F6"/>
</svg>
