<?xml version="1.0" encoding="utf-8"?>
<!-- Generator: Adobe Illustrator 23.1.1, SVG Export Plug-In . SVG Version: 6.00 Build 0)  -->
<svg version="1.1" id="レイヤー_1" xmlns="http://www.w3.org/2000/svg" xmlns:xlink="http://www.w3.org/1999/xlink" x="0px"
     y="0px" viewBox="0 0 40 40" style="enable-background:new 0 0 40 40; fill: #ffffff" xml:space="preserve">
    <path d="M10,31.5c-0.4,0-0.8-0.1-1.1-0.4c-0.6-0.6-0.6-1.5,0-2.1l20-20c0.6-0.6,1.5-0.6,2.1,0c0.6,0.6,0.6,1.5,0,2.1
	l-20,20C10.8,31.4,10.4,31.5,10,31.5z"/>
    <path d="M30,31.5c-0.4,0-0.8-0.1-1.1-0.4l-20-20c-0.6-0.6-0.6-1.5,0-2.1c0.6-0.6,1.5-0.6,2.1,0l20,20
	c0.6,0.6,0.6,1.5,0,2.1C30.8,31.4,30.4,31.5,30,31.5z"/>
</svg>
