<svg width="26" height="22" viewBox="0 0 26 22" fill="none" xmlns="http://www.w3.org/2000/svg">
<path d="M8.16727 21.5316C17.9784 21.5316 23.3469 13.3955 23.3469 6.3519C23.3469 6.12301 23.3469 5.89412 23.3365 5.66523C24.377 4.91613 25.2821 3.96935 26 2.89772C25.0428 3.32429 24.0128 3.60521 22.9308 3.74046C24.0336 3.085 24.8764 2.03418 25.2821 0.785678C24.2521 1.39952 23.1076 1.8365 21.8904 2.07579C20.9124 1.03538 19.5286 0.39032 17.9992 0.39032C15.0548 0.39032 12.6619 2.78328 12.6619 5.72765C12.6619 6.14382 12.7139 6.54958 12.7971 6.94494C8.36495 6.72645 4.43217 4.5936 1.79992 1.36831C1.34214 2.15903 1.08203 3.07459 1.08203 4.05259C1.08203 5.90453 2.02881 7.53798 3.45418 8.49516C2.58023 8.46395 1.7583 8.22465 1.04042 7.8293C1.04042 7.8501 1.04042 7.87091 1.04042 7.90213C1.04042 10.4824 2.88195 12.6464 5.31653 13.1354C4.86915 13.2603 4.40096 13.3227 3.91196 13.3227C3.56863 13.3227 3.23569 13.2915 2.91317 13.2291C3.58944 15.3515 5.56623 16.8913 7.89676 16.9329C6.06563 18.3687 3.76631 19.2219 1.26931 19.2219C0.842738 19.2219 0.416166 19.201 0 19.149C2.35134 20.6472 5.16047 21.5316 8.16727 21.5316Z" fill="#D5D5D5"/>
</svg>
