<svg width="26" height="26" viewBox="0 0 26 26" fill="none" xmlns="http://www.w3.org/2000/svg">
<g clip-path="url(#clip0)">
<path d="M13 2.34229C16.4714 2.34229 16.8821 2.35571 18.2533 2.41815C19.5206 2.47594 20.209 2.68752 20.6673 2.86555C21.2741 3.10138 21.7071 3.38314 22.1622 3.83777C22.6174 4.29291 22.8991 4.72586 23.1344 5.33272C23.3125 5.79097 23.5241 6.47936 23.5819 7.74674C23.6443 9.11734 23.6577 9.52862 23.6577 13C23.6577 16.4714 23.6443 16.8821 23.5819 18.2533C23.5241 19.5206 23.3125 20.209 23.1344 20.6673C22.8986 21.2741 22.6169 21.7071 22.1622 22.1622C21.7071 22.6174 21.2741 22.8991 20.6673 23.1344C20.209 23.3125 19.5206 23.5241 18.2533 23.5819C16.8827 23.6443 16.4714 23.6577 13 23.6577C9.52862 23.6577 9.11734 23.6443 7.74675 23.5819C6.47936 23.5241 5.79097 23.3125 5.33272 23.1344C4.72587 22.8986 4.29291 22.6169 3.83777 22.1622C3.38262 21.7071 3.10087 21.2741 2.86555 20.6673C2.68752 20.209 2.47594 19.5206 2.41815 18.2533C2.35571 16.8827 2.34229 16.4714 2.34229 13C2.34229 9.52862 2.35571 9.11785 2.41815 7.74674C2.47594 6.47936 2.68752 5.79097 2.86555 5.33272C3.10138 4.72586 3.38314 4.29291 3.83777 3.83777C4.29291 3.38262 4.72587 3.10087 5.33272 2.86555C5.79097 2.68752 6.47936 2.47594 7.74675 2.41815C9.11786 2.35571 9.52862 2.34229 13 2.34229ZM13 0C9.46928 0 9.02652 0.0149651 7.63993 0.0784376C6.25643 0.141394 5.31157 0.361226 4.48436 0.682717C3.62929 1.01504 2.90426 1.45935 2.1818 2.18232C1.45935 2.90477 1.01453 3.6298 0.682717 4.48436C0.361226 5.31157 0.141394 6.25643 0.0784376 7.63993C0.0149651 9.02652 0 9.46928 0 13C0 16.5307 0.0149651 16.9735 0.0784376 18.3601C0.141394 19.7436 0.361226 20.6884 0.682717 21.5156C1.01504 22.3707 1.45935 23.0957 2.18232 23.8182C2.90529 24.5412 3.6298 24.9855 4.48488 25.3178C5.31157 25.6393 6.25695 25.8591 7.64044 25.9221C9.02703 25.9855 9.46979 26.0005 13.0005 26.0005C16.5312 26.0005 16.974 25.9855 18.3606 25.9221C19.7441 25.8591 20.6895 25.6393 21.5162 25.3178C22.3712 24.9855 23.0963 24.5412 23.8187 23.8182C24.5417 23.0952 24.986 22.3707 25.3183 21.5156C25.6398 20.6889 25.8596 19.7436 25.9226 18.3601C25.9861 16.9735 26.001 16.5307 26.001 13C26.001 9.46928 25.9861 9.02652 25.9226 7.63993C25.8596 6.25643 25.6398 5.31105 25.3183 4.48436C24.986 3.62929 24.5417 2.90426 23.8187 2.1818C23.0957 1.45884 22.3712 1.01453 21.5162 0.682201C20.6884 0.361226 19.7436 0.141394 18.3601 0.0784376C16.9735 0.0149651 16.5307 0 13 0Z" fill="white"/>
<path d="M13.0002 6.32471C9.31308 6.32471 6.32471 9.31359 6.32471 13.0002C6.32471 16.6867 9.31359 19.6756 13.0002 19.6756C16.6867 19.6756 19.6756 16.6867 19.6756 13.0002C19.6756 9.31359 16.6872 6.32471 13.0002 6.32471ZM13.0002 17.3333C10.6068 17.3333 8.667 15.393 8.667 13.0002C8.667 10.6068 10.6073 8.667 13.0002 8.667C15.393 8.667 17.3333 10.6073 17.3333 13.0002C17.3333 15.3935 15.3935 17.3333 13.0002 17.3333Z" fill="white"/>
<path d="M19.9399 7.62045C20.8014 7.62045 21.4998 6.92202 21.4998 6.06047C21.4998 5.19891 20.8014 4.50049 19.9399 4.50049C19.0783 4.50049 18.3799 5.19891 18.3799 6.06047C18.3799 6.92202 19.0783 7.62045 19.9399 7.62045Z" fill="white"/>
</g>
<defs>
<clipPath id="clip0">
<rect width="26" height="26" fill="white"/>
</clipPath>
</defs>
</svg>
