<svg width="26" height="26" viewBox="0 0 26 26" fill="none" xmlns="http://www.w3.org/2000/svg">
<path d="M24.0704 0H1.90972C0.855394 0 0 0.835501 0 1.86993V24.1102C0 25.1446 0.855394 25.9801 1.90972 25.9801H24.0704C25.1247 25.9801 26 25.1446 26 24.1102V1.86993C26 0.835501 25.1247 0 24.0704 0ZM7.71844 22.1408H3.85922V9.74751H7.71844V22.1408ZM5.78883 8.05662C4.55547 8.05662 3.56083 7.06197 3.56083 5.82862C3.56083 4.59526 4.55547 3.60061 5.78883 3.60061C7.02219 3.60061 8.01683 4.59526 8.01683 5.82862C8.01683 7.04208 7.02219 8.05662 5.78883 8.05662ZM22.1408 22.1408H18.3015V16.1132C18.3015 14.6809 18.2816 12.8309 16.2923 12.8309C14.2831 12.8309 13.9847 14.4024 13.9847 16.0138V22.1408H10.1255V9.74751H13.8256V11.4384H13.8852C14.4024 10.4637 15.6557 9.42923 17.5256 9.42923C21.4246 9.42923 22.1408 11.9954 22.1408 15.3374V22.1408Z" fill="white"/>
</svg>
