<svg xmlns="http://www.w3.org/2000/svg" fill="#fff" viewBox="0 0 307.24 54.12"><polygon points="259.72 31.72 259.72 11.01 267.24 11.01 267.24 44.01 260.86 44.01 243.46 23.3 243.42 23.3 243.42 44.01 235.95 44.01 235.95 11.01 242.23 11.01 259.51 31.71 259.72 31.72"/><path d="M151.13,27a13,13,0,0,1,2.11,1.39,8.3,8.3,0,0,1,2.93,7.21,9.06,9.06,0,0,1-5.36,7.25A14.87,14.87,0,0,1,144.56,44H130.27c0-.31,0-33,0-33h10.42c1.79,0,3.68,0,4.87.12,3.58.21,6.18,1.4,8.08,4.41a8.88,8.88,0,0,1-2.23,11.2Zm-13.79,2.9c0,2.75,0,8.2,0,8.2h6.22c3.94,0,6.07-1.81,6.07-3.85a3.72,3.72,0,0,0-2.45-3.64,9.9,9.9,0,0,0-3.93-.7C141.45,29.85,139.27,29.87,137.34,29.87Zm0-5.47h5.41c3.39,0,5.24-1.34,5.24-3.9s-1.54-3.63-5.22-3.63h-5.43Z"/><path d="M191.32,44h-8.17l-6.52-10.39h-5.56V44H164V11h11c5.23,0,8.58.69,11,2.28a10,10,0,0,1,4.54,8.43c0,5-2,8.17-5.43,10.27l-1.19.66ZM171.06,17.36v10h5.5c3.84,0,6.48-2.06,6.48-5.09,0-2.55-2-4.9-6.45-4.9Z"/><path d="M277,44V11h6.91c-2.68,0,5.89,0,9.25.47,4.61.67,8.06,2.33,10.55,5.22a16.84,16.84,0,0,1,3.49,10.59c0,5.54-2.2,10.14-6.07,12.93A21.54,21.54,0,0,1,288.26,44ZM284,17.24V37.76s4.67,0,6.18,0a10.6,10.6,0,0,0,5.38-1.56,10.07,10.07,0,0,0,4.62-8.8A9.25,9.25,0,0,0,298.09,21a9.86,9.86,0,0,0-5.93-3.31C289.69,17.3,284,17.24,284,17.24Z"/><path d="M230,44h-8l-2.92-7.31H206.13L203.33,44h-7.79l13.1-33h7.82Zm-17.16-24.5-.64,0c-1.29,3.5-2.79,7.46-4.11,11h9C215.74,26.95,214.1,23,212.81,19.52Z"/><path d="M0,0V54.12H125.6V0ZM90.05,44H62.92v-6.7l18-20H63.57V11h26l0,6.56L71.73,37.74H90.05Zm31-11.45c-.05.4-.15.86-.15.86h-19c.24,1.68,2.06,4.32,6.32,4.88a14.28,14.28,0,0,0,5.28-.22,13.74,13.74,0,0,0,3.82-1.42c.48,1.11,1.72,4.23,2.15,5.25-2,1.44-6.06,2.53-9.78,2.53a17,17,0,0,1-9.23-2.52,13.3,13.3,0,0,1-5.59-11,12.67,12.67,0,0,1,4.56-10.17,13.72,13.72,0,0,1,9-3.11,12.43,12.43,0,0,1,11.71,7.73A13.58,13.58,0,0,1,121.09,32.57Z"/><path d="M108.45,23.69c-3.86,0-6,2.07-6.45,4.77h12.32C114.44,26.26,112.31,23.69,108.45,23.69Z"/></svg>
