<svg width="26" height="22" viewBox="0 0 26 22" fill="none" xmlns="http://www.w3.org/2000/svg">
<path d="M8.16727 21.8781C17.9784 21.8781 23.3469 13.742 23.3469 6.6984C23.3469 6.46951 23.3469 6.24062 23.3365 6.01173C24.377 5.26263 25.2821 4.31585 26 3.24422C25.0428 3.67079 24.0128 3.9517 22.9308 4.08696C24.0336 3.43149 24.8764 2.38067 25.2821 1.13217C24.2521 1.74602 23.1076 2.18299 21.8904 2.42229C20.9124 1.38187 19.5286 0.736816 17.9992 0.736816C15.0548 0.736816 12.6619 3.12977 12.6619 6.07415C12.6619 6.49032 12.7139 6.89608 12.7971 7.29144C8.36495 7.07295 4.43217 4.9401 1.79992 1.71481C1.34214 2.50552 1.08203 3.42109 1.08203 4.39908C1.08203 6.25102 2.02881 7.88448 3.45418 8.84166C2.58023 8.81045 1.7583 8.57115 1.04042 8.17579C1.04042 8.1966 1.04042 8.21741 1.04042 8.24862C1.04042 10.8289 2.88195 12.9929 5.31653 13.4819C4.86915 13.6068 4.40096 13.6692 3.91196 13.6692C3.56863 13.6692 3.23569 13.638 2.91317 13.5756C3.58944 15.698 5.56623 17.2378 7.89676 17.2794C6.06563 18.7152 3.76631 19.5683 1.26931 19.5683C0.842738 19.5683 0.416166 19.5475 0 19.4955C2.35134 20.9937 5.16047 21.8781 8.16727 21.8781Z" fill="white"/>
</svg>
